# xmcd CD database file
#
# Track frame offsets:
#	150
#	9465
#	25880
#	45685
#	50427
#	58372
#	89687
#	102227
#	112647
#	150560
#	155087
#	166805
#
# Disc length: 2654 seconds
#
# Revision: 4
# Processed by: cddbd v1.5.2PL0 Copyright (c) Steve Scherf et al.
# Submitted via: CDex 1.70beta2
#
DISCID=910a5c0c
DTITLE=Clemencic Consort, dir. Rene  Clemencic - Danses Anciennes de Hongrie et de Transylvanie
DYEAR=1978
DGENRE=Music - 17th Century
TTITLE0=Otodik tancz (Codex Kajoni, Hungarian, 17th century) 
TTITLE1=Duch Pane swu Swatuny
TTITLE2=U naseho Barty, Erdelyi Hajdutanc, Chodila, chodila
TTITLE3=Pro clarinis, no.22-23 (Codex Vietoris, Hungarian, 17th century) 
TTITLE4=Chorea hungarica, Chorea tancz (Codex Vietoris, Hungarian, 17th century) 
TTITLE5=Pargamasca, Corant, Sarabanda, Coranta, Gagliarda (Codex Vietoris, Hungarian, 17th century) 
TTITLE6=Tantz, Chorea Tantz, Ritka (Codex Vietoris, Hungarian, 17th century) 
TTITLE7=O Gloriosa Domina (Codex Vietoris, Hungarian, 17th century) 
TTITLE8=Alia chorea No8, Lopatkowany tanecz, Proportio, Alia chorea, Alia hungarica (Codex Vietoris, Hungarian, 17th century) 
TTITLE9=Pro Clarinis III and XI (Codex Vietoris, Hungarian, 17th century) 
TTITLE10=Lapozskas tancz, Tancz, Apor Lazar tancza (Codex Vietoris, Hungarian, 17th century) 
TTITLE11=Olach tancz (PT 01), Alia chorea, Alia polonica, Nerada robyla,Olach tancz (PT 02) (Codex Vietoris, Hungarian, 17th century) 
EXTD=YEAR: 1978
EXTT0=
EXTT1=
EXTT2=
EXTT3=
EXTT4=
EXTT5=
EXTT6=
EXTT7=
EXTT8=
EXTT9=
EXTT10=
EXTT11=
PLAYORDER=
